<svg width="256" height="256" viewBox="0 0 256 256" fill="none" xmlns="http://www.w3.org/2000/svg">
  <circle cx="128" cy="128" r="112" fill="#FF7A59"/>
  <path d="M166 58C126 59 93 89 89 129C88 142 90 154 95 165L77 185C70 192 70 203 77 210C84 217 95 217 102 210L121 191C132 196 144 198 156 196C186 191 211 166 216 136C220 114 214 93 200 77L175 102C176 107 175 112 171 116C167 121 161 124 154 124H145L140 141C136 156 123 167 107 170L102 171L118 155C124 149 132 145 141 145H148C158 145 168 141 176 133C188 121 191 103 185 88L166 58Z" fill="#102A56"/>
  <circle cx="108" cy="175" r="10" fill="#102A56"/>
  <circle cx="91" cy="189" r="8" fill="#102A56"/>
  <path d="M154 76C124 79 101 104 100 134C111 110 131 94 157 88L180 86L154 76Z" fill="#FFD9CC"/>
</svg>
